# xmcd
#
# Track frame offsets:
#	183
#	11643
#	25545
#	56383
#	78825
#	94470
#	107078
#	130383
#	162193
#	174310
#
# Disc length: 2497 seconds
#
# Revision: 2
# Processed by: cddbd v1.4PL0 Copyright (c) Steve Scherf et al.
# Submitted via: EasyCDDAExtractor 5.0.6
#
DISCID=7009bf0a
DTITLE=Various Artist - Neder Blues Vol. 2
DYEAR=1900
DGENRE=Blues
TTITLE0=Cuby and Blizzards - Appleknockers Flophouse
TTITLE1=Cuby and Blizzards - Distant smile
TTITLE2=Barrelhouse - If you really wonna leave
TTITLE3=barrelhouse - Get like you used to be
TTITLE4=Rob Hoeke and R&B Group - Drinking on my bed
TTITLE5=Rob Hoeke and R&B Group - Margio
TTITLE6=Livin' Blues - Wang Dang Doodle
TTITLE7=Livin' Blues - I came home at night
TTITLE8=Bintangs - Ridin´ on the L&N
TTITLE9=Bintangs - Traveling in the USA
EXTD=
EXTT0=
EXTT1=
EXTT2=
EXTT3=
EXTT4=
EXTT5=
EXTT6=
EXTT7=
EXTT8=
EXTT9=
PLAYORDER=
